<svg id="logosandtypes_com" xmlns="http://www.w3.org/2000/svg" viewBox="0 0 150 150"><style>.st1{fill:#141b4d}</style><g id="Layer_3_2_"><g id="Layer_3_1_"><path id="Layer_3" d="M0 0h150v150H0V0z" fill="none"/></g></g><g id="Eurosport"><path id="XMLID_84_" class="st1" d="M78.7 119.2L49 99.7 3.1 119.2 30 87.5 0 67.7h47l31.7-37.4v37.4h45.6L78.7 86.9z"/><path id="XMLID_83_" class="st1" d="M135.4 48.4c1.7 0 2.8-1.4 2.8-2.8V33.1c0-1.7-1.4-2.8-2.8-2.8H86.7v18.4l48.7-.3z"/><path id="XMLID_82_" class="st1" d="M135.4 119.5c1.7 0 2.8-1.4 2.8-2.8v-12.5c0-1.7-1.4-2.8-2.8-2.8H86.7v18.1h48.7z"/><path id="XMLID_193_" class="st1" d="M78.7 119.2L49 99.7 3.1 119.2 30 87.5 0 67.7h47l31.7-37.4v37.4h45.6L78.7 86.9z"/><path id="XMLID_192_" class="st1" d="M135.4 48.4c1.7 0 2.8-1.4 2.8-2.8V33.1c0-1.7-1.4-2.8-2.8-2.8H86.7v18.4l48.7-.3z"/><path id="XMLID_191_" class="st1" d="M135.4 119.5c1.7 0 2.8-1.4 2.8-2.8v-12.5c0-1.7-1.4-2.8-2.8-2.8H86.7v18.1h48.7z"/></g></svg>